<svg xmlns="http://www.w3.org/2000/svg" width="29" height="29" viewBox="0 0 29 29">
  <g id="Group_4022" data-name="Group 4022" transform="translate(-203 -122)">
    <g id="Group_4021" data-name="Group 4021" transform="translate(-102 -508)">
      <circle id="Ellipse_24" data-name="Ellipse 24" cx="14.5" cy="14.5" r="14.5" transform="translate(305 630)" fill="#f36f23"/>
    </g>
    <path id="Icon_awesome-phone" data-name="Icon awesome-phone" d="M12.314.613l-2.6-.6a.6.6,0,0,0-.686.347l-1.2,2.8a.6.6,0,0,0,.172.7L9.519,5.094A9.25,9.25,0,0,1,5.1,9.516L3.858,8a.6.6,0,0,0-.7-.172l-2.8,1.2a.606.606,0,0,0-.349.689l.6,2.6a.6.6,0,0,0,.584.464A11.58,11.58,0,0,0,12.778,1.2.6.6,0,0,0,12.314.613Z" transform="translate(210.684 129.932)" fill="#fff"/>
  </g>
</svg>
