<svg xmlns="http://www.w3.org/2000/svg" xmlns:xlink="http://www.w3.org/1999/xlink" width="302" height="56" viewBox="0 0 302 56">
  <defs>
    <filter id="Shape_buttom" x="0" y="0" width="302" height="56" filterUnits="userSpaceOnUse">
      <feOffset dy="3" input="SourceAlpha"/>
      <feGaussianBlur stdDeviation="3" result="blur"/>
      <feFlood flood-color="#a2a2a2" flood-opacity="0.38"/>
      <feComposite operator="in" in2="blur"/>
      <feComposite in="SourceGraphic"/>
    </filter>
  </defs>
  <g id="Group_3989" data-name="Group 3989" transform="translate(20 -58)">
    <g transform="matrix(1, 0, 0, 1, -20, 58)" filter="url(#Shape_buttom)">
      <g id="Shape_buttom-2" data-name="Shape buttom" transform="translate(9 6)" fill="#fff">
        <path d="M 266.8553466796875 37.87200164794922 L 17.14467811584473 37.87200164794922 C 14.84907150268555 37.87200164794922 12.62207126617432 37.37371444702148 10.52553558349609 36.39099884033203 C 8.49946403503418 35.44132232666016 6.679642677307129 34.08146286010742 5.116571426391602 32.34928512573242 C 1.899642825126648 28.78421401977539 0.1280000060796738 24.04335784912109 0.1280000060796738 19 C 0.1280000060796738 13.95664310455322 1.899642825126648 9.215785980224609 5.116571426391602 5.65071439743042 C 6.679642677307129 3.918535709381104 8.49946403503418 2.558714389801025 10.52553558349609 1.608999967575073 C 12.62207126617432 0.62628573179245 14.84907150268555 0.1280000060796738 17.14467811584473 0.1280000060796738 L 266.8553466796875 0.1280000060796738 C 269.1509399414063 0.1280000060796738 271.3779296875 0.62628573179245 273.4744567871094 1.608999967575073 C 275.5005493164063 2.558714389801025 277.3203430175781 3.918535709381104 278.8833923339844 5.65071439743042 C 282.1003723144531 9.215785980224609 283.8720092773438 13.95667839050293 283.8720092773438 19 C 283.8720092773438 24.04335784912109 282.1003723144531 28.78421401977539 278.8833923339844 32.34928512573242 C 277.3203430175781 34.08146286010742 275.5005493164063 35.44132232666016 273.4744567871094 36.39099884033203 C 271.3779296875 37.37371444702148 269.1509399414063 37.87200164794922 266.8553466796875 37.87200164794922 Z" stroke="none"/>
        <path d="M 17.1446533203125 0.2560005187988281 C 14.86795043945313 0.2560005187988281 12.65924072265625 0.750213623046875 10.579833984375 1.724891662597656 C 8.5693359375 2.667320251464844 6.76318359375 4.016998291015625 5.21160888671875 5.736465454101563 C 2.01593017578125 9.277963638305664 0.256011962890625 13.98839378356934 0.256011962890625 19 C 0.256011962890625 24.0116081237793 2.01593017578125 28.7220344543457 5.21160888671875 32.26353454589844 C 6.76318359375 33.98300170898438 8.5693359375 35.33267974853516 10.579833984375 36.27510833740234 C 12.65924072265625 37.24978637695313 14.86795043945313 37.74399948120117 17.1446533203125 37.74399948120117 L 266.8553466796875 37.74399948120117 C 269.1320495605469 37.74399948120117 271.3407592773438 37.24978637695313 273.4201354980469 36.27510833740234 C 275.4306640625 35.33267974853516 277.23681640625 33.98300170898438 278.7883605957031 32.26353454589844 C 281.9840698242188 28.7220344543457 283.7439880371094 24.0116081237793 283.7439880371094 19 C 283.7439880371094 13.98839378356934 281.9840698242188 9.277963638305664 278.7883605957031 5.736465454101563 C 277.23681640625 4.016998291015625 275.4306640625 2.667320251464844 273.4201354980469 1.724891662597656 C 271.3407592773438 0.750213623046875 269.1320495605469 0.2560005187988281 266.8553466796875 0.2560005187988281 L 17.1446533203125 0.2560005187988281 M 17.1446533203125 0 L 266.8553466796875 0 C 276.3240356445313 0 284 8.506570816040039 284 19 C 284 29.49342727661133 276.3240356445313 38 266.8553466796875 38 L 17.1446533203125 38 C 7.675933837890625 38 0 29.49342727661133 0 19 C 0 8.506570816040039 7.675933837890625 0 17.1446533203125 0 Z" stroke="none" fill="#f36f23"/>
      </g>
    </g>
    <text id="Search_Messages" data-name="Search Messages" transform="translate(52.311 88)" fill="#b3b3b3" font-size="14" font-family="Roboto-Regular, Roboto" letter-spacing="0.02em"><tspan x="0" y="0">Search Messages</tspan></text>
    <path id="Path_513" data-name="Path 513" d="M14.84,14.223l-3.7-3.873a6.252,6.252,0,0,0,1.474-4.044,6.306,6.306,0,1,0-6.306,6.306,6.143,6.143,0,0,0,3.6-1.131l3.736,3.907a.827.827,0,0,0,1.165,0,.817.817,0,0,0,.034-1.165ZM6.306,1.645A4.661,4.661,0,1,1,1.645,6.306,4.666,4.666,0,0,1,6.306,1.645Zm0,0" transform="translate(6.746 74.886)" fill="#b3b3b3"/>
  </g>
</svg>
