<svg xmlns="http://www.w3.org/2000/svg" width="18.993" height="20.933" viewBox="0 0 18.993 20.933">
  <path id="Hand" d="M18.062,9.8a1.882,1.882,0,0,1-.374,3.415.014.014,0,0,0-.007.021A1.879,1.879,0,0,1,16.5,16.208c-.013,0-.015.016-.009.028a1.862,1.862,0,0,1,.2.84,1.917,1.917,0,0,1-1.778,1.917H4.851V8.7L7.594,4.567a2.081,2.081,0,0,0,.346-1.208l-.054-2.08c-.1-1.093-.062-1.1.367-1.191.064-.013.137-.029.22-.05,1.062-.27,3.729.81,2.67,6.347H16.9a1.9,1.9,0,0,1,1.883,1.9,1.876,1.876,0,0,1-.727,1.483A.02.02,0,0,0,18.062,9.8ZM3.881,8.324H0V20.933H3.881Z" fill="#27a9dc" fill-rule="evenodd"/>
</svg>
