<svg xmlns="http://www.w3.org/2000/svg" width="16.755" height="12.566" viewBox="0 0 16.755 12.566">
  <path id="Icon_awesome-volume-mute" data-name="Icon awesome-volume-mute" d="M7.037,4.731,4.125,7.642H.785A.785.785,0,0,0,0,8.427v4.712a.785.785,0,0,0,.785.785h3.34l2.911,2.911a.786.786,0,0,0,1.341-.555V5.286A.786.786,0,0,0,7.037,4.731Zm8.07,6.052L16.6,9.29a.528.528,0,0,0,0-.747L15.853,7.8a.528.528,0,0,0-.747,0L13.613,9.29,12.12,7.8a.528.528,0,0,0-.747,0l-.747.747a.528.528,0,0,0,0,.747l1.494,1.494-1.493,1.493a.528.528,0,0,0,0,.747l.747.747a.528.528,0,0,0,.747,0l1.493-1.493,1.494,1.494a.528.528,0,0,0,.747,0l.747-.747a.528.528,0,0,0,0-.747Z" transform="translate(0 -4.5)" fill="#f36f23"/>
</svg>
