<svg xmlns="http://www.w3.org/2000/svg" width="14.091" height="15.853" viewBox="0 0 14.091 15.853">
  <path id="Icon_material-bug-report" data-name="Icon material-bug-report" d="M20.091,8.9H17.617a5.271,5.271,0,0,0-1.6-1.726l1.436-1.436L16.207,4.5,14.3,6.411a5.342,5.342,0,0,0-1.251-.15,5.212,5.212,0,0,0-1.242.15L9.884,4.5,8.642,5.742l1.427,1.436A5.339,5.339,0,0,0,8.475,8.9H6v1.761H7.841a5.846,5.846,0,0,0-.079.881v.881H6v1.761H7.761v.881a5.846,5.846,0,0,0,.079.881H6v1.761H8.475a5.275,5.275,0,0,0,9.142,0h2.475V15.949H18.251a5.846,5.846,0,0,0,.079-.881v-.881h1.761V12.426H18.33v-.881a5.846,5.846,0,0,0-.079-.881h1.841Zm-5.284,7.046H11.284V14.188h3.523Zm0-3.523H11.284V10.665h3.523Z" transform="translate(-6 -4.5)" fill="#f36f23"/>
</svg>
