<svg xmlns="http://www.w3.org/2000/svg" width="15.158" height="15.158" viewBox="0 0 15.158 15.158">
  <path id="Icon_awesome-smile" data-name="Icon awesome-smile" d="M7.579.563a7.579,7.579,0,1,0,7.579,7.579A7.578,7.578,0,0,0,7.579.563ZM10.024,5.7a.978.978,0,1,1-.978.978A.977.977,0,0,1,10.024,5.7Zm-4.89,0a.978.978,0,1,1-.978.978A.977.977,0,0,1,5.134,5.7Zm5.953,5.2a4.565,4.565,0,0,1-7.017,0,.489.489,0,0,1,.752-.626,3.591,3.591,0,0,0,5.513,0A.489.489,0,0,1,11.087,10.9Z" transform="translate(0 -0.563)" fill="#f36f23"/>
</svg>
