<svg xmlns="http://www.w3.org/2000/svg" width="20.078" height="20.078" viewBox="0 0 20.078 20.078">
  <path id="Icon_awesome-phone" data-name="Icon awesome-phone" d="M19.348.964,15.269.023a.947.947,0,0,0-1.078.545L12.309,4.96a.939.939,0,0,0,.271,1.1L14.956,8a14.533,14.533,0,0,1-6.949,6.949L6.062,12.575a.94.94,0,0,0-1.1-.271L.572,14.187a.952.952,0,0,0-.549,1.082l.941,4.078a.941.941,0,0,0,.918.729,18.193,18.193,0,0,0,18.2-18.2A.94.94,0,0,0,19.348.964Z" transform="translate(0.001 0.001)" fill="#f36f23"/>
</svg>
