<svg xmlns="http://www.w3.org/2000/svg" width="16.451" height="16.451" viewBox="0 0 16.451 16.451">
  <path id="Icon_awesome-pencil-alt" data-name="Icon awesome-pencil-alt" d="M16,4.569,14.518,6.05a.386.386,0,0,1-.546,0L10.405,2.483a.386.386,0,0,1,0-.546L11.887.456a1.546,1.546,0,0,1,2.182,0L16,2.387A1.54,1.54,0,0,1,16,4.569ZM9.133,3.21.695,11.648l-.681,3.9a.772.772,0,0,0,.893.893l3.9-.684,8.438-8.438a.386.386,0,0,0,0-.546L9.682,3.21a.39.39,0,0,0-.549,0ZM3.989,10.925a.448.448,0,0,1,0-.636L8.937,5.34a.45.45,0,1,1,.636.636L4.625,10.925a.448.448,0,0,1-.636,0Zm-1.16,2.7H4.371v1.166L2.3,15.157l-1-1,.363-2.073H2.829Z" transform="translate(-0.002 -0.005)" fill="#f36f23"/>
</svg>
