<svg xmlns="http://www.w3.org/2000/svg" width="46" height="46" viewBox="0 0 46 46">
  <path id="Path_132" data-name="Path 132" d="M1253,23.5q1.106,0,2.2.108t2.185.324q1.083.216,2.141.537t2.079.744q1.022.423,2,.944t1.894,1.135q.92.614,1.774,1.315t1.636,1.483q.781.781,1.483,1.636t1.315,1.774q.613.918,1.135,1.894t.944,2q.423,1.02.744,2.079t.537,2.141q.215,1.084.324,2.185T1275.5,46q0,1.105-.108,2.205t-.324,2.185q-.216,1.083-.537,2.141t-.744,2.079q-.423,1.021-.944,2t-1.135,1.894q-.614.919-1.315,1.774t-1.483,1.636q-.781.781-1.636,1.483t-1.774,1.315q-.918.613-1.894,1.135t-2,.944q-1.02.423-2.079.744t-2.141.537q-1.085.214-2.185.324t-2.2.108q-1.106,0-2.2-.108t-2.185-.324q-1.083-.216-2.141-.537t-2.079-.744q-1.022-.423-2-.944t-1.894-1.135q-.92-.613-1.774-1.315t-1.636-1.483q-.781-.781-1.483-1.636t-1.315-1.774q-.615-.918-1.135-1.894t-.944-2q-.423-1.02-.744-2.079t-.537-2.141q-.216-1.084-.324-2.185T1230.5,46q0-1.105.108-2.205t.324-2.185q.216-1.083.537-2.141t.744-2.079q.423-1.021.944-2t1.135-1.894q.614-.919,1.315-1.774t1.483-1.636q.781-.781,1.636-1.483t1.774-1.315q.918-.614,1.894-1.135t2-.944q1.02-.423,2.079-.744t2.141-.537q1.085-.214,2.185-.324T1253,23.5Z" transform="translate(-1230 -23)" fill="none" stroke="#f36f23" stroke-width="1"/>
</svg>
