<svg xmlns="http://www.w3.org/2000/svg" width="19.667" height="19.667" viewBox="0 0 19.667 19.667">
  <path id="Path_119" data-name="Path 119" d="M1155.673,55.662a.7.7,0,0,1-.621-.775l.382-3.435h-2.494a2.107,2.107,0,0,1-2.107-2.107V38.107A2.107,2.107,0,0,1,1152.94,36h15.453a2.107,2.107,0,0,1,2.107,2.107V49.345a2.107,2.107,0,0,1-2.107,2.107h-7.69l-4.483,4.034a.7.7,0,0,1-.471.181A.647.647,0,0,1,1155.673,55.662Zm-2.03-8.423a.7.7,0,0,0,.7.7h12.643a.7.7,0,0,0,0-1.4h-12.643A.7.7,0,0,0,1153.643,47.239Zm0-3.512a.7.7,0,0,0,.7.7h12.643a.7.7,0,0,0,0-1.405h-12.643A.7.7,0,0,0,1153.643,43.727Zm0-3.513a.7.7,0,0,0,.7.7h12.643a.7.7,0,0,0,0-1.4h-12.643A.7.7,0,0,0,1153.643,40.214Z" transform="translate(-1150.833 -36)" fill="#8a8a8a"/>
</svg>
