<svg xmlns="http://www.w3.org/2000/svg" width="268.069" height="39.38" viewBox="0 0 268.069 39.38">
  <path id="Path_128" data-name="Path 128" d="M37.435,45.55v-.02q0-.942.093-1.88t.276-1.862q.183-.924.457-1.826T38.9,38.19q.362-.87.805-1.7t.968-1.615q.523-.783,1.121-1.512t1.264-1.394a18.753,18.753,0,0,1,1.4-1.264q.727-.6,1.511-1.122t1.615-.967q.831-.444,1.7-.805t1.773-.634a18.793,18.793,0,0,1,1.825-.457q.926-.184,1.862-.277t1.88-.092H285.324q.942,0,1.88.092t1.862.277a18.814,18.814,0,0,1,1.826.457q.9.273,1.772.634t1.7.805q.831.444,1.615.967t1.512,1.122q.727.6,1.394,1.264t1.264,1.394q.6.729,1.122,1.512t.967,1.615q.444.831.8,1.7t.634,1.772q.273.9.457,1.826t.277,1.862q.092.938.092,1.88v.02q0,.942-.092,1.88t-.277,1.862q-.183.924-.457,1.826t-.634,1.772q-.36.87-.8,1.7t-.967,1.615q-.523.783-1.122,1.512t-1.264,1.394q-.666.666-1.394,1.264T295.98,61.5q-.785.522-1.615.967t-1.7.805q-.87.36-1.772.634t-1.826.457q-.924.185-1.862.277t-1.88.092H56.615q-.942,0-1.88-.092t-1.862-.277q-.924-.183-1.825-.457t-1.773-.634q-.87-.36-1.7-.805T45.959,61.5q-.783-.525-1.511-1.122t-1.4-1.264q-.666-.666-1.264-1.394t-1.121-1.512q-.523-.783-.968-1.615t-.805-1.7q-.36-.87-.634-1.772T37.8,49.292q-.185-.924-.276-1.862T37.435,45.55Z" transform="translate(-36.935 -25.85)" fill="none" stroke="#f36f23" stroke-width="1"/>
</svg>
