<svg xmlns="http://www.w3.org/2000/svg" width="39.34" height="39.38" viewBox="0 0 39.34 39.38">
  <path id="Path_129" data-name="Path 129" d="M285.174,26q.966,0,1.928.095t1.909.283q.948.189,1.873.47t1.817.651q.894.37,1.745.826t1.656.993q.8.538,1.551,1.152t1.43,1.3q.682.684,1.3,1.432t1.15,1.552q.537.8.992,1.657t.826,1.747q.369.894.65,1.819t.469,1.875q.189.948.283,1.911t.1,1.93q0,.968-.1,1.93t-.283,1.911q-.189.95-.469,1.875t-.65,1.819q-.37.894-.826,1.747t-.992,1.657q-.537.8-1.15,1.552t-1.3,1.432q-.684.684-1.43,1.3T296.1,62.062q-.8.537-1.656.993t-1.745.826q-.893.37-1.817.651t-1.873.47q-.946.189-1.909.283t-1.928.095q-.966,0-1.928-.095T281.337,65q-.948-.189-1.873-.47t-1.817-.651q-.894-.371-1.745-.826t-1.656-.993q-.8-.539-1.551-1.152t-1.43-1.3q-.683-.684-1.3-1.432t-1.15-1.552q-.537-.8-.992-1.657T267,53.225q-.369-.894-.65-1.819t-.469-1.875q-.189-.948-.283-1.911t-.1-1.93q0-.968.1-1.93t.283-1.911q.189-.949.469-1.875t.65-1.819q.37-.894.826-1.747t.992-1.657q.537-.8,1.15-1.552t1.3-1.432q.684-.684,1.43-1.3t1.551-1.152q.8-.537,1.656-.993t1.745-.826q.893-.37,1.817-.651t1.873-.47q.946-.187,1.909-.283T285.174,26Z" transform="translate(-265.504 -26)" fill="#f36f23"/>
</svg>
