<svg xmlns="http://www.w3.org/2000/svg" width="28.927" height="28.927" viewBox="0 0 28.927 28.927">
  <path id="Path_115" data-name="Path 115" d="M783.663,46.547a14.465,14.465,0,0,1,14.463-14.464c7.988,0,14.464,5.753,14.464,12.857a8.038,8.038,0,0,1-8.036,8.035h-2.835a2.414,2.414,0,0,0-1.808,4.01,2.355,2.355,0,0,1,.626,1.615,2.407,2.407,0,0,1-2.411,2.41A14.465,14.465,0,0,1,783.663,46.547Zm20.891-2.411a2.411,2.411,0,1,0,2.411-2.41A2.409,2.409,0,0,0,804.554,44.136Zm-17.677,0a2.41,2.41,0,1,0,2.41-2.41A2.408,2.408,0,0,0,786.877,44.136Zm12.856-6.428a2.411,2.411,0,1,0,2.411-2.411A2.408,2.408,0,0,0,799.733,37.708Zm-8.035,0a2.41,2.41,0,1,0,2.411-2.411A2.408,2.408,0,0,0,791.7,37.708Z" transform="translate(-783.663 -32.083)" fill="#110e1f"/>
</svg>
