<svg xmlns="http://www.w3.org/2000/svg" width="23.052" height="27.119" viewBox="0 0 23.052 27.119">
  <path id="Path_117" data-name="Path 117" d="M744.505,34.73H728.911a3.732,3.732,0,0,0-3.729,3.729V58.12a3.732,3.732,0,0,0,3.729,3.729h15.594a3.732,3.732,0,0,0,3.729-3.729V38.459A3.732,3.732,0,0,0,744.505,34.73Zm-2.712,23.051h-10.17a1.016,1.016,0,1,1,0-2.033h10.17a1.016,1.016,0,1,1,0,2.033Zm0-5.424h-10.17a1.017,1.017,0,0,1,0-2.034h10.17a1.017,1.017,0,0,1,0,2.034Zm0-4.745h-10.17a1.017,1.017,0,0,1,0-2.034h10.17a1.017,1.017,0,0,1,0,2.034Zm0-5.424h-10.17a1.017,1.017,0,0,1,0-2.034h10.17a1.017,1.017,0,0,1,0,2.034Z" transform="translate(-725.182 -34.73)" fill="#110e1f"/>
</svg>
