<svg xmlns="http://www.w3.org/2000/svg" width="5.026" height="6.472" viewBox="0 0 5.026 6.472">
  <path id="Path_127" data-name="Path 127" d="M1203.506,42.176a1.441,1.441,0,0,0,.9-1.365c0-1.058-.922-1.718-2.3-1.718s-2.278.66-2.278,1.718a1.431,1.431,0,0,0,.886,1.365A1.568,1.568,0,0,0,1199.6,43.7c0,1.148.967,1.862,2.5,1.862s2.522-.714,2.522-1.862A1.573,1.573,0,0,0,1203.506,42.176Zm-1.4-2.351c.849,0,1.41.389,1.41,1.022s-.534,1.012-1.41,1.012-1.383-.389-1.383-1.012S1201.255,39.825,1202.1,39.825Zm0,5.008c-1,0-1.6-.443-1.6-1.157,0-.7.6-1.13,1.6-1.13s1.618.434,1.618,1.13C1203.723,44.39,1203.108,44.833,1202.1,44.833Z" transform="translate(-1199.601 -39.093)" fill="#fff"/>
</svg>
