<svg xmlns="http://www.w3.org/2000/svg" width="37.573" height="39.139" viewBox="0 0 37.573 39.139">
  <path id="Path_112" data-name="Path 112" d="M452.842,60.731v1.144a1.814,1.814,0,0,1-1.539,1.8l-.282,1.039a1.294,1.294,0,0,1-1.249.958h-2.8a1.294,1.294,0,0,1-1.249-.958l-.274-1.039a1.823,1.823,0,0,1-1.547-1.8V60.723a1.1,1.1,0,0,1,1.1-1.1h6.727A1.112,1.112,0,0,1,452.842,60.731Zm5.18-15.414a9.6,9.6,0,0,1-2.707,6.693,8.836,8.836,0,0,0-2.369,4.8,1.594,1.594,0,0,1-1.579,1.345h-5.985a1.578,1.578,0,0,1-1.571-1.337A8.94,8.94,0,0,0,441.426,52a9.643,9.643,0,1,1,16.6-6.684Zm-8.556-5.838a1.088,1.088,0,0,0-1.088-1.088,6.967,6.967,0,0,0-6.96,6.958,1.087,1.087,0,1,0,2.175,0,4.79,4.79,0,0,1,4.785-4.783A1.083,1.083,0,0,0,449.466,39.479Zm-1.088-6.967a1.088,1.088,0,0,0,1.088-1.087V27.616a1.088,1.088,0,0,0-2.175,0v3.809A1.087,1.087,0,0,0,448.378,32.512Zm-12.8,12.8a1.087,1.087,0,0,0-1.087-1.087h-3.811a1.087,1.087,0,0,0,0,2.174h3.811A1.082,1.082,0,0,0,435.577,45.309Zm30.5-1.087h-3.811a1.087,1.087,0,1,0,0,2.174h3.811a1.087,1.087,0,1,0,0-2.174ZM437.793,54.361l-2.7,2.7a1.085,1.085,0,0,0,1.531,1.538l2.7-2.7a1.085,1.085,0,1,0-1.531-1.538ZM458.2,36.579a1.082,1.082,0,0,0,.765-.314l2.7-2.7a1.088,1.088,0,1,0-1.539-1.538l-2.7,2.7a1.085,1.085,0,0,0,0,1.538A1.1,1.1,0,0,0,458.2,36.579Zm-20.406-.322a1.085,1.085,0,0,0,1.531-1.538l-2.7-2.7a1.088,1.088,0,1,0-1.539,1.538Zm21.171,18.1a1.088,1.088,0,1,0-1.539,1.538l2.7,2.7a1.085,1.085,0,0,0,1.531-1.538Z" transform="translate(-429.592 -26.529)" fill="#110e1f"/>
</svg>
