<svg xmlns="http://www.w3.org/2000/svg" width="28.002" height="28.002" viewBox="0 0 28.002 28.002">
  <path id="Path_113" data-name="Path 113" d="M572.5,60.085a2.921,2.921,0,0,1-2.919-2.918V48.414h26.865v8.753a2.922,2.922,0,0,1-2.92,2.918Zm18.617-12.837,1.87-4.669h2.874a.583.583,0,0,1,.585.583v4.086Zm-5.839,0,1.869-4.667h4.581l-1.869,4.667Zm-5.84,0,1.868-4.667h4.583l-1.87,4.667Zm-5.841,0,1.87-4.667h4.581l-1.868,4.667Zm-4.016,0v-3.13L568.5,39.84a1.751,1.751,0,0,1,1.312-2.132l.953-.227,3.615,5.323-.285.065-1.753,4.377Zm2.395-10.053,4.71-1.116,3.654,5.372L575.6,42.526Zm5.925-1.405,4.371-1.036L586.3,40.1l-4.733,1.077Zm5.612-1.331,4.685-1.111,3.717,5.475-4.37.992Zm5.9-1.4,3.924-.932a1.765,1.765,0,0,1,2.1,1.282l.994,3.768a.585.585,0,0,1-.436.718l-2.853.649Z" transform="translate(-568.443 -32.083)" fill="#110e1f"/>
</svg>
