<svg xmlns="http://www.w3.org/2000/svg" width="21.485" height="23.438" viewBox="0 0 21.485 23.438">
  <g id="Group_1" data-name="Group 1" transform="translate(162 177)">
    <path id="Path_1" data-name="Path 1" d="M-159.07-170.408a4.644,4.644,0,0,1,4.639-4.639h8.919A2.681,2.681,0,0,0-148.084-177h-11.231A2.688,2.688,0,0,0-162-174.314v15.137a2.688,2.688,0,0,0,2.686,2.686h.244Zm0,0" transform="translate(0 0)" fill="#abaaaa"/>
    <path id="Path_2" data-name="Path 2" d="M-68.084-113H-79.314A2.688,2.688,0,0,0-82-110.314v14.16a2.688,2.688,0,0,0,2.686,2.686h11.231A2.688,2.688,0,0,0-65.4-96.154v-14.16A2.688,2.688,0,0,0-68.084-113Zm-1.953,16.6h-7.324a.733.733,0,0,1-.732-.732.733.733,0,0,1,.732-.732h7.324a.733.733,0,0,1,.732.732.733.733,0,0,1-.732.732Zm0-3.906h-7.324a.733.733,0,0,1-.732-.732.733.733,0,0,1,.732-.732h7.324a.733.733,0,0,1,.732.732.733.733,0,0,1-.732.732Zm0-3.418h-7.324a.733.733,0,0,1-.732-.732.733.733,0,0,1,.732-.732h7.324a.733.733,0,0,1,.732.732.733.733,0,0,1-.732.732Zm0-3.906h-7.324a.733.733,0,0,1-.732-.732.733.733,0,0,1,.732-.732h7.324a.733.733,0,0,1,.732.732.733.733,0,0,1-.732.732Zm0,0" transform="translate(-75.117 -60.094)" fill="#abaaaa"/>
  </g>
</svg>
